<svg xmlns="http://www.w3.org/2000/svg" xmlns:xlink="http://www.w3.org/1999/xlink" width="500" zoomAndPan="magnify" viewBox="0 0 375 374.999991" height="500" preserveAspectRatio="xMidYMid meet" version="1.0"><defs><g/><clipPath id="c80890f61a"><path d="M 9.855469 8.050781 L 365.320312 8.050781 L 365.320312 363.519531 L 9.855469 363.519531 Z M 9.855469 8.050781 " clip-rule="nonzero"/></clipPath><clipPath id="0e658d0be8"><path d="M 27.105469 8.050781 L 348.070312 8.050781 C 357.597656 8.050781 365.320312 15.773438 365.320312 25.300781 L 365.320312 346.269531 C 365.320312 355.796875 357.597656 363.519531 348.070312 363.519531 L 27.105469 363.519531 C 17.578125 363.519531 9.855469 355.796875 9.855469 346.269531 L 9.855469 25.300781 C 9.855469 15.773438 17.578125 8.050781 27.105469 8.050781 Z M 27.105469 8.050781 " clip-rule="nonzero"/></clipPath><clipPath id="5380f5c13f"><path d="M 229.039062 101.476562 L 314.625 101.476562 L 314.625 161.730469 L 229.039062 161.730469 Z M 229.039062 101.476562 " clip-rule="nonzero"/></clipPath><clipPath id="1d69052265"><path d="M 225.394531 112.410156 L 296.335938 112.410156 L 296.335938 168.222656 L 225.394531 168.222656 Z M 225.394531 112.410156 " clip-rule="nonzero"/></clipPath></defs><g clip-path="url(#c80890f61a)"><g clip-path="url(#0e658d0be8)"><path fill="#558b2f" d="M 9.855469 8.050781 L 365.320312 8.050781 L 365.320312 363.519531 L 9.855469 363.519531 Z M 9.855469 8.050781 " fill-opacity="1" fill-rule="nonzero"/></g></g><g fill="#ffffff" fill-opacity="1"><g transform="translate(34.986683, 247.269351)"><g><path d="M 248.757812 -172.796875 L 243.871094 -181.238281 C 242.984375 -182.570312 238.097656 -185.234375 235.875 -186.125 C 230.988281 -187.902344 221.660156 -190.566406 208.777344 -192.34375 L 188.34375 -195.007812 C 171.019531 -197.230469 138.148438 -198.5625 135.929688 -198.5625 L 112.386719 -198.5625 L 97.726562 -196.785156 C 96.394531 -196.785156 94.171875 -197.230469 93.726562 -195.898438 C 92.839844 -194.5625 90.617188 -193.675781 90.175781 -193.675781 C 87.066406 -195.453125 83.957031 -195.453125 78.625 -194.5625 C 75.960938 -194.5625 70.183594 -192.789062 64.855469 -191.898438 C 56.414062 -191.453125 48.417969 -187.457031 41.753906 -183.457031 C 33.761719 -178.574219 25.320312 -174.574219 23.988281 -165.246094 C 22.210938 -163.023438 21.765625 -159.914062 22.65625 -158.140625 C 24.875 -148.808594 26.207031 -138.148438 34.203125 -131.042969 C 35.09375 -129.710938 36.871094 -128.375 38.203125 -126.601562 C 40.421875 -123.492188 43.53125 -122.601562 47.085938 -122.15625 C 52.859375 -123.046875 57.304688 -123.492188 63.078125 -121.714844 C 66.1875 -120.382812 67.074219 -122.601562 67.964844 -126.15625 C 64.410156 -128.820312 60.855469 -130.152344 56.414062 -130.597656 C 49.308594 -134.152344 42.199219 -138.59375 37.3125 -144.8125 C 27.542969 -157.25 37.757812 -161.691406 42.644531 -164.359375 C 45.753906 -165.246094 48.417969 -167.023438 50.640625 -168.800781 C 86.175781 -179.90625 109.277344 -182.125 138.148438 -181.238281 C 137.707031 -177.683594 135.929688 -172.796875 135.039062 -170.578125 C 133.261719 -163.023438 131.042969 -157.695312 128.820312 -151.03125 C 126.15625 -141.703125 123.492188 -136.371094 119.9375 -125.265625 C 115.9375 -113.273438 111.941406 -104.832031 105.277344 -91.0625 C 104.390625 -86.621094 101.722656 -83.066406 100.835938 -78.625 C 100.835938 -78.179688 100.390625 -77.738281 100.390625 -77.738281 C 93.285156 -77.292969 85.289062 -76.847656 79.957031 -76.847656 L 58.191406 -75.515625 C 55.96875 -75.960938 54.195312 -75.515625 51.972656 -74.628906 C 51.527344 -70.628906 51.085938 -70.628906 51.527344 -68.851562 C 51.527344 -67.964844 51.972656 -66.1875 51.972656 -64.410156 C 52.417969 -59.523438 58.636719 -57.746094 63.523438 -58.191406 L 79.511719 -61.746094 C 82.625 -61.746094 86.621094 -62.1875 89.730469 -62.1875 C 91.507812 -62.1875 93.285156 -62.632812 95.0625 -62.632812 C 87.507812 -43.089844 76.402344 -13.769531 73.292969 -4.886719 C 69.742188 6.21875 70.183594 7.550781 67.964844 15.992188 C 67.074219 27.542969 66.632812 32.425781 67.964844 41.3125 C 68.851562 48.417969 73.738281 56.859375 77.292969 62.632812 C 83.957031 68.851562 86.175781 72.40625 95.503906 74.628906 L 95.503906 69.742188 C 87.953125 63.964844 84.84375 49.308594 83.957031 41.753906 C 82.179688 29.316406 85.734375 17.769531 86.175781 11.105469 C 89.285156 -1.777344 104.390625 -39.089844 114.160156 -63.964844 L 123.046875 -63.964844 C 127.042969 -64.410156 130.152344 -64.855469 133.261719 -63.523438 C 141.703125 -62.632812 139.925781 -63.523438 149.699219 -61.300781 C 153.253906 -61.300781 158.140625 -60.414062 162.136719 -59.96875 C 166.578125 -58.191406 174.128906 -56.414062 176.351562 -54.195312 L 181.238281 -56.414062 C 179.90625 -61.300781 177.238281 -64.410156 172.796875 -67.519531 C 163.46875 -71.074219 157.695312 -73.292969 147.921875 -74.628906 C 135.929688 -76.402344 127.042969 -77.292969 119.9375 -77.738281 L 122.15625 -83.066406 C 128.820312 -96.835938 134.152344 -110.609375 139.480469 -125.265625 C 145.257812 -139.039062 149.699219 -147.921875 153.695312 -161.691406 C 155.472656 -167.023438 157.25 -174.128906 159.914062 -179.460938 C 161.25 -179.90625 163.46875 -179.460938 167.023438 -179.460938 L 185.679688 -178.128906 L 200.339844 -176.351562 L 216.773438 -174.128906 C 223.4375 -173.242188 238.097656 -171.910156 246.535156 -167.023438 C 247.425781 -165.246094 250.980469 -164.800781 252.3125 -165.246094 C 253.199219 -171.019531 250.980469 -170.132812 248.757812 -172.796875 Z M 248.757812 -172.796875 "/></g></g></g><g fill="#ffffff" fill-opacity="1"><g transform="translate(206.42218, 247.269351)"><g><path d="M 36.871094 -97.28125 C 39.535156 -95.503906 42.199219 -95.503906 44.421875 -96.394531 C 48.417969 -99.058594 52.417969 -101.722656 54.195312 -106.609375 C 55.96875 -111.496094 54.195312 -116.382812 52.859375 -120.824219 C 51.972656 -123.933594 49.308594 -125.265625 44.421875 -124.824219 C 44.421875 -124.824219 42.644531 -124.824219 42.199219 -124.378906 C 36.425781 -121.269531 31.539062 -118.160156 29.316406 -111.496094 C 28.429688 -107.054688 29.316406 -103.5 31.984375 -100.390625 C 33.316406 -99.058594 35.535156 -98.171875 36.871094 -97.28125 Z M 96.835938 -49.75 C 99.058594 -53.75 98.613281 -56.414062 97.726562 -57.304688 C 91.953125 -51.527344 86.175781 -46.640625 80.847656 -41.753906 C 74.183594 -35.535156 67.964844 -28.429688 60.855469 -22.210938 C 54.195312 -15.546875 46.199219 -9.328125 39.089844 -3.109375 C 35.535156 0 31.539062 1.777344 26.652344 3.109375 C 27.097656 -1.332031 28.429688 -5.332031 28.429688 -9.328125 C 28.875 -13.769531 31.539062 -17.769531 30.207031 -21.765625 C 30.207031 -22.65625 30.652344 -23.097656 31.09375 -23.988281 C 31.539062 -25.765625 32.425781 -27.542969 33.316406 -29.316406 C 35.09375 -35.09375 36.871094 -40.421875 38.203125 -45.753906 C 39.089844 -47.976562 39.980469 -50.195312 39.980469 -52.859375 C 40.421875 -55.082031 40.421875 -57.746094 39.535156 -59.523438 C 38.644531 -61.300781 36.425781 -63.078125 34.648438 -64.410156 C 33.316406 -66.632812 30.207031 -67.964844 28.875 -70.183594 C 27.542969 -72.40625 26.207031 -71.519531 24.875 -71.074219 C 23.097656 -71.074219 22.65625 -69.742188 23.097656 -67.964844 L 23.097656 -64.410156 C 20.878906 -55.96875 18.65625 -48.417969 16.878906 -40.421875 C 15.101562 -34.648438 13.328125 -28.875 12.4375 -23.097656 C 10.21875 -15.101562 8.441406 -6.664062 9.328125 0.886719 C 9.773438 2.664062 11.105469 3.554688 11.550781 5.332031 C 12.4375 6.21875 13.328125 7.550781 13.769531 8.882812 C 14.214844 9.773438 14.214844 11.105469 15.101562 11.550781 C 18.210938 13.769531 19.988281 17.769531 24.429688 18.65625 C 27.542969 19.546875 29.761719 20.878906 33.316406 19.988281 C 36.425781 18.210938 39.535156 16.878906 42.199219 15.546875 C 44.863281 14.660156 47.53125 14.214844 49.308594 12.4375 C 51.972656 10.660156 54.195312 8.882812 55.96875 6.664062 C 58.636719 3.109375 61.746094 -0.445312 65.300781 -2.664062 L 67.519531 -4.886719 C 68.410156 -5.773438 68.851562 -7.105469 69.742188 -7.996094 L 74.628906 -15.101562 C 80.847656 -23.988281 81.734375 -27.984375 83.511719 -30.207031 C 86.175781 -33.316406 95.949219 -48.863281 96.394531 -49.308594 Z M 96.835938 -49.75 "/></g></g></g><g clip-path="url(#5380f5c13f)"><path fill="#ffffff" d="M 314.957031 104.925781 C 300.640625 116.472656 293.316406 134.003906 284.421875 143.929688 C 227.992188 206.894531 183.617188 79.308594 314.957031 104.925781 " fill-opacity="1" fill-rule="evenodd"/></g><g clip-path="url(#1d69052265)"><path fill="#2e7000" d="M 225.394531 163.539062 C 236.777344 147.742188 245.980469 130.898438 267.066406 120.78125 C 275.609375 116.679688 277.328125 115.144531 286.890625 112.894531 L 286.785156 112.921875 C 290.761719 112.386719 292.421875 112.734375 296.234375 113.03125 C 293.15625 113.472656 295.351562 113.265625 291.613281 113.359375 C 282.609375 113.59375 275.609375 118.316406 267.847656 122.316406 C 246.003906 133.570312 238.703125 150.976562 225.988281 168.222656 L 225.394531 163.539062 " fill-opacity="1" fill-rule="evenodd"/></g><path fill="#2e7000" d="M 260.648438 124.476562 C 262.152344 124.273438 263.699219 124.125 265.289062 124.035156 C 273.285156 123.585938 275.121094 122.9375 283.316406 124.261719 L 283.226562 124.25 C 286.503906 125.113281 287.6875 125.917969 290.566406 127.378906 C 288.019531 126.734375 289.804688 127.28125 286.851562 126.152344 C 279.746094 123.429688 272.757812 124.867188 265.40625 125.488281 C 263.789062 125.625 262.230469 125.820312 260.726562 126.066406 C 260.902344 125.546875 260.875 124.976562 260.648438 124.476562 " fill-opacity="1" fill-rule="evenodd"/><path fill="#2e7000" d="M 246.097656 135.953125 C 246.1875 135.949219 246.269531 135.941406 246.359375 135.9375 C 255.820312 135.40625 257.996094 134.640625 267.691406 136.207031 L 267.585938 136.191406 C 271.46875 137.214844 272.867188 138.167969 276.277344 139.894531 C 273.261719 139.132812 275.375 139.777344 271.882812 138.441406 C 263.46875 135.222656 255.199219 136.917969 246.496094 137.65625 L 246.308594 137.671875 C 246.441406 137.097656 246.367188 136.484375 246.097656 135.953125 " fill-opacity="1" fill-rule="evenodd"/><path fill="#2e7000" d="M 269.8125 121.074219 C 270.390625 120.242188 270.925781 119.386719 271.417969 118.507812 C 273.890625 114.089844 274.972656 113.058594 275.816406 108.585938 L 275.804688 108.636719 C 275.828125 106.855469 275.367188 106.226562 274.726562 104.683594 C 274.683594 106.066406 274.625 105.101562 274.9375 106.695312 C 275.6875 110.527344 272.546875 114.417969 270.074219 118.484375 C 269.53125 119.378906 268.949219 120.242188 268.332031 121.082031 C 268.867188 120.964844 269.398438 120.964844 269.8125 121.074219 " fill-opacity="1" fill-rule="evenodd"/><path fill="#2e7000" d="M 250.863281 133.339844 C 250.894531 133.28125 250.929688 133.226562 250.960938 133.167969 C 254.429688 126.921875 255.828125 125.535156 257.414062 118.960938 L 257.394531 119.03125 C 257.660156 116.371094 257.210938 115.363281 256.671875 112.957031 C 256.4375 115.019531 256.5 113.566406 256.648438 115.996094 C 257.003906 121.847656 252.824219 127.214844 249.402344 132.941406 L 249.328125 133.0625 C 249.90625 133.023438 250.453125 133.121094 250.863281 133.339844 " fill-opacity="1" fill-rule="evenodd"/></svg>