<svg width="500" height="500" viewBox="0 0 500 500" fill="none" xmlns="http://www.w3.org/2000/svg">
<g clip-path="url(#clip0_19_21)">
<rect width="500" height="500" rx="150" fill="url(#paint0_linear_19_21)"/>
<path d="M221.258 480.04C210.938 480.04 202.768 477.603 196.748 472.73C190.728 468.143 186.141 462.123 182.988 454.67C179.834 447.503 177.541 439.62 176.108 431.02C174.674 422.707 173.671 414.68 173.098 406.94C172.811 401.493 172.524 391.747 172.238 377.7C171.951 363.653 171.808 347.17 171.808 328.25V290.41C171.521 290.41 171.234 290.267 170.948 289.98C166.648 288.26 164.498 285.25 164.498 280.95C164.498 276.363 166.934 273.21 171.808 271.49H172.238L173.098 239.67C173.384 227.057 173.958 212.867 174.818 197.1C175.678 181.047 176.968 164.707 178.688 148.08C180.694 131.167 183.131 114.827 185.998 99.06C189.151 83.0067 192.878 68.6733 197.178 56.06C201.764 43.4467 207.211 33.4133 213.518 25.96C220.111 18.5067 227.708 14.78 236.308 14.78C243.474 14.78 249.208 17.0733 253.508 21.66C257.808 26.2466 260.961 31.8366 262.968 38.43C264.974 44.7366 265.978 50.7567 265.978 56.49C265.978 69.6767 263.971 84.5833 259.958 101.21C256.231 117.837 251.071 135.037 244.478 152.81C238.171 170.583 231.291 188.07 223.838 205.27C216.384 222.47 209.074 238.38 201.908 253C201.621 255.293 201.334 257.73 201.048 260.31C201.048 262.89 201.048 265.327 201.048 267.62C207.641 268.193 213.518 269.913 218.678 272.78C223.838 275.36 228.568 278.8 232.868 283.1C241.754 279.087 249.924 274.07 257.378 268.05C264.831 262.03 271.711 255.007 278.018 246.98C278.304 239.813 278.734 231.357 279.308 221.61C279.881 211.577 280.884 201.543 282.318 191.51C284.038 181.19 286.331 172.303 289.198 164.85C290.631 161.41 293.211 158.4 296.938 155.82C300.951 153.24 306.111 151.95 312.418 151.95C316.718 151.95 321.018 152.523 325.318 153.67C323.598 160.263 321.591 169.437 319.298 181.19C317.291 192.943 315.428 205.7 313.708 219.46C312.274 233.22 311.414 246.693 311.128 259.88V271.92C311.128 279.373 311.414 287.4 311.988 296C312.848 304.6 314.281 311.91 316.288 317.93C318.581 323.663 322.021 326.53 326.608 326.53H327.038C329.331 326.53 331.768 325.383 334.348 323.09C337.214 320.797 340.224 316.497 343.378 310.19C345.671 306.177 347.678 301.447 349.398 296C351.404 290.267 353.411 284.247 355.418 277.94C356.564 275.36 357.711 274.07 358.858 274.07C360.291 274.07 361.008 275.79 361.008 279.23V280.95C360.434 288.403 358.428 296.86 354.988 306.32C351.548 315.78 346.674 323.95 340.368 330.83C334.348 337.71 327.038 341.15 318.438 341.15C309.838 341.15 302.814 338.57 297.368 333.41C292.208 327.963 288.194 321.083 285.328 312.77C282.461 304.457 280.454 295.857 279.308 286.97C278.448 278.083 278.018 270.057 278.018 262.89V259.88C272.284 266.187 266.121 271.92 259.528 277.08C253.221 281.953 246.341 285.967 238.888 289.12C245.481 297.147 250.784 306.607 254.798 317.5C258.811 328.107 261.678 339.143 263.398 350.61C265.404 362.077 266.408 372.97 266.408 383.29C266.408 400.49 264.688 416.4 261.248 431.02C257.808 445.64 252.648 457.393 245.768 466.28C239.174 475.453 231.004 480.04 221.258 480.04ZM203.628 227.2C213.661 205.7 222.548 183.913 230.288 161.84C238.028 139.48 244.048 116.547 248.348 93.04C249.494 86.7333 250.354 80.7133 250.928 74.98C251.788 68.96 252.218 63.6566 252.218 59.07C252.218 53.3367 251.644 48.75 250.498 45.31C249.351 41.87 247.631 40.0066 245.338 39.72H244.908C241.468 39.72 238.171 42.8733 235.018 49.18C231.864 55.2 229.141 63.2266 226.848 73.26C221.401 97.6266 216.671 122.997 212.658 149.37C208.931 175.457 205.921 201.4 203.628 227.2ZM321.878 121.42C316.144 121.42 311.271 119.413 307.258 115.4C303.244 111.387 301.238 106.513 301.238 100.78C301.238 95.0467 303.244 90.1733 307.258 86.16C311.271 82.1467 316.144 80.14 321.878 80.14C327.611 80.14 332.484 82.1467 336.498 86.16C340.511 90.1733 342.518 95.0467 342.518 100.78C342.518 106.513 340.511 111.387 336.498 115.4C332.484 119.413 327.611 121.42 321.878 121.42ZM199.758 290.41C202.911 290.41 205.921 290.267 208.788 289.98C211.941 289.407 214.951 288.833 217.818 288.26C212.944 284.247 207.068 281.38 200.188 279.66C200.188 281.667 200.188 283.53 200.188 285.25C200.188 286.683 200.044 288.403 199.758 290.41ZM221.688 471.44C226.848 471.44 231.434 468.287 235.448 461.98C239.461 455.673 242.614 447.36 244.908 437.04C247.201 426.72 248.348 415.397 248.348 403.07C248.348 392.463 247.774 380.28 246.628 366.52C245.768 353.047 243.618 339.86 240.178 326.96C237.024 314.06 231.721 303.31 224.268 294.71C217.961 296.43 211.224 297.29 204.058 297.29H199.758C199.471 303.597 199.328 309.903 199.328 316.21C199.328 322.517 199.328 328.68 199.328 334.7C199.328 360.787 200.188 384.15 201.908 404.79C203.628 425.43 206.208 441.627 209.648 453.38C213.088 465.42 217.101 471.44 221.688 471.44Z" fill="white"/>
</g>
<defs>
<linearGradient id="paint0_linear_19_21" x1="42" y1="64" x2="440.5" y2="574.5" gradientUnits="userSpaceOnUse">
<stop stop-color="#007296" stop-opacity="0.78"/>
<stop offset="1" stop-color="#22EE73" stop-opacity="0.69"/>
</linearGradient>
<clipPath id="clip0_19_21">
<rect width="500" height="500" rx="150" fill="white"/>
</clipPath>
</defs>
</svg>
